<svg xmlns="http://www.w3.org/2000/svg" viewBox="0 0 680 680"><defs><style>.a{isolation:isolate;}.b,.i{fill:#b2d4ff;}.b{opacity:0.16;}.c{fill:#ffb6b2;}.d{fill:#f58220;}.e{fill:#cc4e00;}.ab,.ac,.ae,.af,.ah,.ai,.aj,.ak,.al,.am,.an,.ao,.f,.k,.m,.o,.s,.x,.y{fill:none;}.ak,.f,.x{stroke:#f58220;}.ab,.ac,.af,.ai,.aj,.am,.ao,.f,.k,.m,.s,.x,.y{stroke-linecap:round;stroke-linejoin:round;}.ai,.aj,.am,.an,.ao,.f,.k,.m,.o,.s,.y{stroke-width:0.5px;}.g{fill:#ecf3ff;}.h{fill:#f7dff5;}.j{fill:#fff;}.ae,.af,.k{stroke:#fff;}.l{fill:#faf1e1;}.m{stroke:#49439c;}.n{fill:#5b57c2;}.o{stroke:#a8aaad;}.ae,.ah,.ak,.al,.an,.o{stroke-miterlimit:10;}.p{fill:#dcf5de;}.q{fill:#ffe5b2;}.r{fill:#ccf;}.s{stroke:#ff8880;}.t{fill:#ffc74f;}.u{fill:#314351;}.v{fill:#49439c;}.w{opacity:0.1;mix-blend-mode:multiply;}.y{stroke:#4d9aff;}.z{fill:#4d9aff;}.aa{fill:#e085d3;}.ab,.ac{stroke:#b2d4ff;}.ab{stroke-width:2px;}.ad{fill:#beedc0;}.ag{fill:#ff8880;}.ah{stroke:#faf1e1;}.ai,.al{stroke:#ffc74f;}.aj{stroke:#ffb6b2;}.am{stroke:#7dcc7a;}.an,.ao{stroke:#09366d;}</style></defs><title>finance and operation</title><g class="a"><ellipse class="b" cx="339.08" cy="617.21" rx="318.72" ry="10.7"/><path class="c" d="M124.8,585.38l-2,21.85-21.17-1-2.38-24.28S116.86,580.34,124.8,585.38Z"/><path class="d" d="M99.3,582l.66,7s-10.27-.57-12.65-3.75C89,583.59,92.23,582.19,99.3,582Z"/><path class="d" d="M182.67,583.36l-.74,7.82s11.71-1.18,15.9-4.56C196.1,585,189.74,583.61,182.67,583.36Z"/><path class="c" d="M157.1,588.78l2.06,19.84,21.18-1,2.37-24.28S163.64,583.7,157.1,588.78Z"/><path class="e" d="M158.92,606.4s12.9,2.38,21.62-.2c4.67,2.83,12.65,6.76,13.88,10.32a3.4,3.4,0,0,1-.13,2.7H158.81Z"/><path class="f" d="M188.07,610.68s-5.51,1-4.57,8.48"/><line class="f" x1="182.82" y1="607.59" x2="180.98" y2="609.73"/><line class="f" x1="184.72" y1="608.7" x2="182.72" y2="610.93"/><rect class="g" x="187.3" y="103.39" width="273.99" height="444.3"/><circle class="h" cx="245.55" cy="375.08" r="28.42"/><rect class="i" x="232.38" y="362.02" width="26.35" height="16.58" rx="2"/><rect class="j" x="233.42" y="363.08" width="24.27" height="14.67" rx="2"/><rect class="i" x="239.57" y="379.45" width="11.97" height="0.57"/><line class="k" x1="255.61" y1="384.51" x2="260.32" y2="384.51"/><line class="k" x1="230.78" y1="384.51" x2="252.54" y2="384.51"/><line class="k" x1="255.61" y1="390.63" x2="260.32" y2="390.63"/><line class="k" x1="230.78" y1="390.63" x2="252.54" y2="390.63"/><line class="k" x1="255.61" y1="387.38" x2="260.32" y2="387.38"/><line class="k" x1="230.78" y1="387.38" x2="252.54" y2="387.38"/><rect class="l" x="412.3" y="155.35" width="92.79" height="57.22"/><line class="m" x1="458.71" y1="173.65" x2="495.79" y2="173.65"/><line class="m" x1="458.71" y1="180.21" x2="484.03" y2="180.21"/><line class="m" x1="458.71" y1="186.77" x2="495.38" y2="186.77"/><path class="m" d="M458.71,193.33h26.14"/><rect class="j" x="418.29" y="167.96" width="34.75" height="33.23"/><path class="n" d="M436.94,185.66c-1.66,1.32-3.26,2.58-4.84,3.85a.85.85,0,0,0-.22.55c0,.81,0,1.62,0,2.43a3.15,3.15,0,0,1-.32.83l-.2,0c-.44-.79-.85-1.59-1.33-2.35a2.53,2.53,0,0,0-.83-.83c-.75-.47-1.54-.88-2.33-1.32a.71.71,0,0,1,.8-.53c.8,0,1.59,0,2.39,0a.81.81,0,0,0,.55-.2c1.29-1.59,2.55-3.2,3.87-4.86-.69-.35-1.35-.7-2-1-.11-.05-.34.08-.48.17s-.38.56-.75.18,0-.49.19-.7l.06-.14-3.76-1.9c.62-1,1-1.21,2.09-1.07,2.44.28,4.89.55,7.33.84a1.4,1.4,0,0,0,1.23-.41c1-.93,2.1-1.83,3.21-2.67a5.1,5.1,0,0,1,1.73-.77,1,1,0,0,1,1.19,1.26,5.4,5.4,0,0,1-.82,1.71c-.84,1.11-1.75,2.16-2.67,3.21a1.28,1.28,0,0,0-.36,1.13c.31,2.51.53,5,.9,7.55.15,1-.43,1.39-1.09,2l-1.95-3.86c-.14.1-.22.21-.32.22a.75.75,0,0,1-.52-.06.47.47,0,0,1,0-.46c.51-.39.33-.77.08-1.2S437.21,186.2,436.94,185.66Z"/><rect class="o" x="147.74" y="72.45" width="148.2" height="96.43"/><line class="o" x1="147.74" y1="82.67" x2="295.84" y2="82.67"/><rect class="p" x="165.95" y="92.51" width="116.22" height="69.18"/><circle class="q" cx="154.24" cy="77.85" r="1.54"/><circle class="h" cx="161.31" cy="77.85" r="1.54"/><circle class="r" cx="168.37" cy="77.85" r="1.54"/><rect class="j" x="175.8" y="104.58" width="96.51" height="6.4"/><rect class="j" x="175.8" y="117.38" width="96.51" height="6.4"/><rect class="p" x="218.77" y="131.21" width="53.54" height="15.77"/><rect class="h" x="175.8" y="131.21" width="24.26" height="10.72"/><path class="c" d="M572,318.82l35.79,34,18,8.72s4.41,2.51-.75,2.84c2.21.5,3.69,2.47-1.24,2.47,2,1.23,3.7,3.69-1.47,2.95,2.46.74,5.9,4.43-.49,3.2a102.32,102.32,0,0,1-13.54-4.43s3,6.64-.49,7.38c-.74-1-2-.49-5.9-6.89-6.65-4.43-50.69-34.45-50.69-34.45S562.76,319.48,572,318.82Z"/><line class="s" x1="614.05" y1="360.34" x2="624.68" y2="364.42"/><line class="s" x1="614.23" y1="363.72" x2="623.75" y2="366.88"/><line class="s" x1="614.48" y1="367.33" x2="622.98" y2="369.96"/><path class="c" d="M465.62,576.34l2.27,23.19s21.11.65,21.11.26,3.12-25.25,3.12-25.25S481.34,583.68,465.62,576.34Z"/><path class="d" d="M457.65,566c-.25-.18.68,5,.68,5s4.81,6.75,16.18,8a30.15,30.15,0,0,0,7.35-.16c3.47-.48,8.29-1.61,14.63-7.65a30.83,30.83,0,0,0,.39-7.19S479.3,582,457.65,566Z"/><path class="e" d="M468.74,608.63l19.65.15L488,619.84l-27.22,1.46s-8.57-.52-1-6.2C464.54,611.9,468.74,608.63,468.74,608.63Z"/><path class="q" d="M488.39,608.78c-.12-.11.61-9,.61-9l-21.11-.26.85,9.1Z"/><path class="c" d="M598.27,543.39,615.9,558.2l14.66-14.37-15.4-16.59S610,540.43,598.27,543.39Z"/><path class="d" d="M589.3,542.86a12.56,12.56,0,0,0,2.67,2.69,7.79,7.79,0,0,0,8.74.23c4.1-2.61,12.21-8.48,15.84-15.54,1.26-2.45,2.4-7.94.91-10.26a10.19,10.19,0,0,0-3-3S613.07,535.41,589.3,542.86Z"/><path class="e" d="M622.47,563.79l13.73-14.06,7.67,8L626,578.34s-6.32,5.81-5.16-3.58C621.91,569.08,622.47,563.79,622.47,563.79Z"/><path class="q" d="M636.2,549.73c-.16,0-6.05-6.67-6.05-6.67l-14.82,15,7.14,5.7Z"/><path class="t" d="M514.32,350.57l2.34,5.91,39.46,83.15,60.27,75.61s1.21,23-30.22,29.43c-24.38-25.26-63.46-68.73-63.46-68.73l-16.5-37.36-4.64,123.36s-25.3,26-47.9,1c0,0-5.9-130.86,12.33-210.3C469.27,350.31,496,347.79,514.32,350.57Z"/><path class="c" d="M485.05,261.93l.81,11.83,8.57-.95-17.82,35.64L464.5,279.2s3.95-.27,3.95-.81-.41-10.07-.41-10.07Z"/><path class="c" d="M454.87,250.24s-1.3,11.35,3.72,17.3a7.92,7.92,0,0,0,5.86,2.88c3,.07,8.58-1,20-7.41a39.16,39.16,0,0,0-1.4-15.36c-3.17-10.42-16.41-14.15-24.05-6.39A14.66,14.66,0,0,0,454.87,250.24Z"/><path class="u" d="M453.63,253.86c.41-.14,9.46,2.41,18.05-6.76,0,2.9,3.05,5.28,2.09,8.46,2.07-1.93,4.55-5,6.9-1.38.69,1.1.13,3.59-1.8,3.31,1,2.07,6.33,6.58,6.33,6.58a47.54,47.54,0,0,0-1.05-15.93A16.61,16.61,0,0,0,472.25,236c-4.67-1.13-10.16-.25-14.53,5.72a21.65,21.65,0,0,0-3.87,10.13C453.7,253.07,453.63,253.86,453.63,253.86Z"/><path class="u" d="M477.7,239.12s5.27-9.5,14.4-6.73a13.92,13.92,0,0,1,6.89,4.94c3.18,4.11,9.31,10.64,18.87,1.79,4.8-4.45,9.44-11.31,16.89-10.81,7.93.54,12.18,8.91,13.12,15.91a21.1,21.1,0,0,1-7.1,19.31,27.34,27.34,0,0,1-8.77,4.74c-1.28.42-8.43,3-12.57-10.15-1-2.49-6.63-7.4-14.39-1.59a20.71,20.71,0,0,1-1.91,1.3c-4.1,2.37-13,6.14-18-.57C484.13,250.26,484.13,244.4,477.7,239.12Z"/><path class="u" d="M477.88,241.4a17.48,17.48,0,0,1,.23-5.9,14.41,14.41,0,0,1,2.36-5.51c.32-.39.61-.81,1-1.17l1.12-1c.4-.31.85-.56,1.27-.84a6.4,6.4,0,0,1,1.37-.66l.7-.28a2.59,2.59,0,0,1,.72-.21l1.47-.29a7.32,7.32,0,0,1,1.48-.1c.49,0,1,0,1.47,0a18.15,18.15,0,0,0-5.52,1.6,10.93,10.93,0,0,0-4.24,3.59,16.36,16.36,0,0,0-2.42,5.11A27.07,27.07,0,0,0,477.88,241.4Z"/><path class="v" d="M452.22,335.26s.64,10.24,1.06,23.48c20.71-11.1,60.42-8.33,61.06-8.11s2.56-42.7,2.56-42.7,24.55,25.83,33.73,34.16c-4.13-5.16,6.61-13.57,7.68-14.73,7.9-7.69,13.66-8.54,13.66-8.54s-36.32-31.31-45.5-40.06c-10.06-8.24-16.49-7.2-16.49-7.2l-21.15,1.87-12.49,29.38-9-24.12-13.29,1.87s-7.36.68-11.63,11.46-18.13,50.27-18.13,50.27,15.91,18.81,3.76,27.7a60.48,60.48,0,0,0,8.13-4.77,30.21,30.21,0,0,0,12-15.79C449.4,345.93,450.73,341.32,452.22,335.26Z"/><path class="c" d="M424.32,342.29l-53.88-4.51-4.66-6.06s-2-2-2.61,3.65a23.26,23.26,0,0,0,.13,2.61l-15.76-1.71a7.66,7.66,0,0,0-2.9.22c-1.7.49-2.74,2.47,3.8,4.09-2.61.78-7.41,2.37,3.77,4.06-3.14.52-9.42,1.08,1.67,3.82-1.84-.1-9.17,2.91,4.4,4.08,9.53.79,11,.83,11,.83s3-.38,13.82,3.4S428.08,370,428.08,370s6.85-3.41,4.34-13.7a22.92,22.92,0,0,0-3.18-7.08C427.1,346,424.32,342.29,424.32,342.29Z"/><line class="s" x1="348.35" y1="340.56" x2="359.14" y2="341.27"/><line class="s" x1="351.63" y1="344.48" x2="361.13" y2="344.75"/><line class="s" x1="353.73" y1="348.49" x2="361.75" y2="349.05"/><path class="u" d="M551.38,334.79a9.62,9.62,0,0,0-1.73,4.49,4.19,4.19,0,0,0,1,2.81c1.52-.11,6.13-3.62,6.13-3.62Z"/><path class="u" d="M453.29,358.72a54.18,54.18,0,0,1,12.39-4.65c-1.06,5-1.85,8.82-1.85,8.82S455.76,360.72,453.29,358.72Z"/><path class="w" d="M468.09,270a36.92,36.92,0,0,0,9-4.37c-3.1,3.16-6.08,5.65-8.87,6.38C468.15,270.83,468.09,270,468.09,270Z"/><line class="x" x1="506.02" y1="438.58" x2="479.1" y2="384.1"/><rect class="j" x="259.4" y="291.81" width="104.3" height="76.63"/><rect class="y" x="259.4" y="291.81" width="104.3" height="76.63"/><circle class="z" cx="335.61" cy="326.52" r="19.73"/><path class="aa" d="M335.81,327.05l17.12-10.39s6.23,9.06-.77,21.09C342.11,330.81,335.81,327.05,335.81,327.05Z"/><polygon class="u" points="335.81 327.05 344.67 332.68 352.16 337.75 351.07 338.96 335.81 327.05"/><path class="ab" d="M269.63,309.77H305.3"/><path class="ab" d="M298.68,319.47h6.17"/><path class="ab" d="M269.18,319.47h20.5"/><path class="ab" d="M285.67,329h18.72"/><path class="ab" d="M268.72,329h9.74"/><path class="ab" d="M296.65,338.57h8.28"/><path class="ab" d="M282.53,338.57h9.69"/><path class="ab" d="M269.25,338.57h9.67"/><path class="ab" d="M296.69,348.13h8.45"/><path class="ab" d="M269.47,348.13h19.09"/><line class="ac" x1="323.17" y1="233.35" x2="416.29" y2="233.35"/><line class="ac" x1="323.45" y1="241.02" x2="416.57" y2="241.02"/><line class="ac" x1="322.85" y1="247.94" x2="370.9" y2="247.94"/><rect class="h" x="290.46" y="475.18" width="88.78" height="16.46"/><rect class="o" x="463.98" y="80.6" width="33.33" height="32.73"/><rect class="i" x="364" y="86.68" width="125.71" height="50.85"/><circle class="j" cx="471.74" cy="119.93" r="4.8"/><circle class="j" cx="384.63" cy="105.49" r="4.8"/><line class="k" x1="393.51" y1="105.49" x2="476.06" y2="105.49"/><line class="k" x1="381.85" y1="119.93" x2="458.94" y2="119.93"/><rect class="o" x="327.62" y="425.63" width="121.53" height="43.12"/><rect class="ad" x="290.46" y="396.97" width="145.67" height="65.93"/><rect class="ae" x="305.69" y="414.49" width="62.67" height="11.35" rx="2"/><line class="af" x1="305.99" y1="434.12" x2="368.53" y2="434.12"/><line class="af" x1="305.99" y1="445.14" x2="367.63" y2="445.14"/><rect class="af" x="382.91" y="417.38" width="35.25" height="20.25" rx="1"/><path class="af" d="M412.11,417.46s1,6.54,6.06,5.37"/><path class="af" d="M382.89,423.1c0-.12,5.41-.57,5.69-5.73"/><path class="af" d="M412.18,437.67s.44-5.46,5.95-5.23"/><path class="af" d="M382.81,432.29c0-.11,5.09-.3,5.87,5.5"/><circle class="af" cx="400.53" cy="427.51" r="6.6"/><path class="af" d="M421,421.56v17.89a1.31,1.31,0,0,1-1.3,1.31H387.12"/><path class="af" d="M389.86,444.23h32.8a1.31,1.31,0,0,0,1.31-1.3V424.41"/><path class="e" d="M104.16,361.5,87.27,585.16s7.48-2.46,19-2.21a53.88,53.88,0,0,1,18.4,3.56c4.58-35.6,17.4-141,17.4-141l15,143.73a92.82,92.82,0,0,1,21-4.21c6.25-.5,12.69-1.1,19.79,1.56-2-32.55-15.07-203.3-19.13-228.73C168.29,352,118.07,348.71,104.16,361.5Z"/><path class="ag" d="M156.33,222s4,9.9,1.77,24.72c-.95,4.72-2,8.54-7.29,10.24.76,7.74.8,10.57.8,10.57a22.05,22.05,0,0,1-5.31,5.21,9.48,9.48,0,0,1-12.25-1.35,12.13,12.13,0,0,1-3.2-6.69c-.47-9.68-2.36-33-2.36-33S142.41,221.72,156.33,222Z"/><path class="w" d="M157,224.63s.57,1.84.83,2.79c-.89,1-8,5.38-13.93,4.87-1.14-.13-3.79-.32-5,5.56-.19,1.27-1.26,4.84-3.4,3.52-1.07-.57-2.93-3.12-3.06,2.23a4.32,4.32,0,0,0,4,4.29l-6.29,6.6,5.2-6.43s-6,.81-5-7.88c.36-1.28,1.9-5.65,6.79-2.93.31.11.87.21.67-2,0-1.54.36-6.17,7.76-5.4C146.74,230,152.24,229.49,157,224.63Z"/><path class="u" d="M136,247.29c-.39,0-4.45-.5-3.88-5.19.28-2.31,1.32-3,4.13-1,.63.51,2.25-3.28,2.38-5.71.25-1.79.86-4.53,6.86-4.65,3.74-.22,11.73-2.84,14.59-8.88a9.46,9.46,0,0,0-.17-8.5c-2.39-4.27-8.15-4-11.92-1.95a19.79,19.79,0,0,0-6,5,5.55,5.55,0,0,0-.92,1.48,7.66,7.66,0,0,0-.13-2.24,2.54,2.54,0,0,0-1.93-2,3.08,3.08,0,0,0-1.74.44c-3.63,1.9-6.61,7.2-5.46,11.34-.06-.24-2.21.14-2.4.19a5.33,5.33,0,0,0-2.75,1.4,9.35,9.35,0,0,0-2.27,6c-.23,4.66,1.45,9.68,3,14q.94,2.72,2.05,5.36a12.34,12.34,0,0,1,.86,2.13Z"/><path class="q" d="M151.41,264.8,160,265l6.26.12a24,24,0,0,1,7.21.74c4.54,1.5,8.56,4.9,11.9,8.22,1.09,1.08,2.13,2.2,3.14,3.36a88.85,88.85,0,0,1,6.72,8c4.88,7.11,12.8,14.4,12.8,14.4l1.89-12.56s8.43,3.38,27.36-1.2c1.72,16.06,1.44,56.78,1.44,56.78s4,26.1-25.24,19.5c-4.59-1.72-16.92-10.32-30.11-29.82,2,18.64,2.58,30.4,2.58,30.4a2.29,2.29,0,0,0-.27-.49c-1.23-1.9-8.08-8.65-43.33-8.4-6.88,0-31.55,1.51-38.14,7.45-.57-13.48-2.58-49.61-2.58-49.61l-28.39,30.4L109.9,367l-2.3,25.53s-43-18.65-64.82-35.28c-4-2.58-10-8.32-1.72-20.36,6.6-10,45.09-53,45.09-53S101.22,265.9,115.7,265c8-.29,14.87-.79,14.87-.79s.56,7.72,7.55,9.72a9.62,9.62,0,0,0,7.7-1.23C148.71,270.94,152.21,268.26,151.41,264.8Z"/><path class="w" d="M39.86,347a31.78,31.78,0,0,1,3.82-8.86c3-5.2,7-9.44,10.84-14.07,4.65-5.67,9.53-10,13.58-15.17s7.69-9.25,12-14.13c7.16-8.21,14.32-18.53,24.15-23.7,5.22-2.75,10.72-3.91,16.48-4.86a60.66,60.66,0,0,1,10-1.14c-.09-.51-.12-.83-.12-.83s-6.84.5-14.87.79c-14.48.86-29.55,18.76-29.55,18.76s-38.49,43-45.09,53c-6.25,9.05-4.39,14.53-1.38,17.8A30,30,0,0,1,39.86,347Z"/><path class="w" d="M73.24,342.23l-2.52,2.52c6.42,4,12.8,8.09,19.31,12s13.37,7.5,19.73,11.79l.14-1.55L73.19,342.29Z"/><path class="w" d="M183.45,332.72a153.4,153.4,0,0,1-1-18.68,5.91,5.91,0,0,1-.35-1.55c-.17-1.73-.2-3.47-.2-5.21a.51.51,0,0,1,0-.13v52.34a9.53,9.53,0,0,1,3.73,3,2.29,2.29,0,0,1,.27.49s-.58-11.76-2.58-30.41A1.27,1.27,0,0,0,183.45,332.72Z"/><path class="w" d="M238.67,342.86s.28-40.72-1.44-56.78l-.72.16c.09,18.08,1.34,36.71-.76,54.67-.84,7.25-3.43,13.83-9.48,18.24a24.56,24.56,0,0,1-8.32,4C242.24,366.15,238.67,342.86,238.67,342.86Z"/><line class="f" x1="183.32" y1="332.54" x2="181.9" y2="302.96"/><line class="f" x1="101.58" y1="311.89" x2="109.99" y2="302.5"/><path class="f" d="M66.47,349.05c.24-.49,6.72-6.76,6.72-6.76"/><path class="ag" d="M217.54,288.44l.7-31.09s0-12.26,1.2-14.76a1.47,1.47,0,0,1,2.7.29c.94,2.94,1.46,8.44,2.05,13.15.53-1,3-2.84,4.86-.19.62.94-.11,2.41-.11,2.41s1.13-1.79,3.63.08c.31.47,1.46,1.14.37,2.7,1.25,0,4.37-.94,2.34,4.06,0,5.15,2,21,2,21S226.27,289.75,217.54,288.44Z"/><path class="w" d="M150.81,256.91c-.16-.09-8.31.28-11.9-.6,4.76,2.7,12.17,3.69,12.17,3.69Z"/><path class="u" d="M217.54,288.44l.05-4.67s-6.26-.06-7.72,3.54C211.94,288.33,217.54,288.44,217.54,288.44Z"/><path class="e" d="M123.08,605s-12.91,2.37-21.63-.21c-4.66,2.83-12.65,6.76-13.87,10.32a3.37,3.37,0,0,0,.12,2.7h35.49Z"/><path class="f" d="M93.93,609.29s5.5,1,4.56,8.48"/><line class="f" x1="150.23" y1="268.7" x2="151.56" y2="269.66"/><path class="f" d="M148.64,270.71c.07.05,2.26,2.08,2.26,2.08"/><line class="f" x1="146.32" y1="272.48" x2="149.09" y2="275.39"/><line class="f" x1="143.53" y1="274.08" x2="145.45" y2="277.9"/><line class="f" x1="139.58" y1="274.21" x2="139.49" y2="278.25"/><line class="f" x1="135.48" y1="272.66" x2="134.36" y2="275.55"/><line class="f" x1="132.68" y1="270.02" x2="131.77" y2="271.45"/><path class="u" d="M178.75,358.09s5.93,2,7.15,4.85a15.32,15.32,0,0,1-6.41.39C179.19,361,178.75,358.09,178.75,358.09Z"/><line class="f" x1="96.86" y1="607.69" x2="99.67" y2="609.99"/><line class="f" x1="99.09" y1="606.35" x2="101.67" y2="608.55"/><circle class="u" cx="221.27" cy="199.6" r="41.54"/><circle class="t" cx="217.58" cy="200.49" r="41.54"/><circle class="ah" cx="217.58" cy="200.49" r="36.95"/><path class="q" d="M209.09,199.93a6.05,6.05,0,0,1-2.21-2.06,6.32,6.32,0,0,1-1.11-3.81c0-1,0-1.9.1-2.57a9.17,9.17,0,0,1,.29-1.69,3.9,3.9,0,0,1,.55-1.18c.24-.32.54-.68.88-1.07a10.67,10.67,0,0,1,4-2.9,27.48,27.48,0,0,1,4.63-1.27V179a1.29,1.29,0,0,1,.68-1,2.76,2.76,0,0,1,1.66-.49.57.57,0,0,1,.65.65,14.91,14.91,0,0,1-.16,1.76,25.11,25.11,0,0,0-.16,3.19h1.3a14.79,14.79,0,0,1,2,.2,20.25,20.25,0,0,1,2.57.55,12.45,12.45,0,0,1,2.25.85c.65.32,1,.68,1,1.07a3.64,3.64,0,0,1-.26,1.27,6.6,6.6,0,0,1-.65,1.27,5.21,5.21,0,0,1-.85,1,1.37,1.37,0,0,1-.85.39,1.33,1.33,0,0,1-1-.49,23.91,23.91,0,0,1-1.49-1.92,2.61,2.61,0,0,0-1.7-.94,11,11,0,0,0-2.21-.23,2.61,2.61,0,0,0-.16.84c0,.35,0,.7,0,1l-.13,12.11c.87.48,1.75.91,2.64,1.3s2,.85,3.42,1.37a5.67,5.67,0,0,1,2,1.34,8.18,8.18,0,0,1,1.4,2,9.18,9.18,0,0,1,.81,2.25,9.83,9.83,0,0,1,.26,2.21,6.33,6.33,0,0,1-.35,1.76,14.22,14.22,0,0,1-.92,2.18,18,18,0,0,1-1.17,2,4.25,4.25,0,0,1-1.14,1.24,13.83,13.83,0,0,1-3.48,1.66,35,35,0,0,1-3.88.94c0,.31,0,.86-.1,1.67a15.47,15.47,0,0,1-.35,2.31,2.47,2.47,0,0,1-.59.94,1.53,1.53,0,0,1-1.17.49c-.18,0-.26-.11-.26-.33s0-.66.06-1.33.07-1.84.07-3.49a24.31,24.31,0,0,1-5.21-.55,20.68,20.68,0,0,1-3.85-1.14,1.35,1.35,0,0,1-.49-.55,6.55,6.55,0,0,1-.42-1,7.14,7.14,0,0,1-.29-1.17,5.77,5.77,0,0,1-.1-1,1.52,1.52,0,0,1,.26-.85.87.87,0,0,1,.78-.39,2,2,0,0,1,.78.2c.31.13.94.45,1.89,1a22.26,22.26,0,0,0,3.23,1.5,8,8,0,0,0,2.57.65,5.13,5.13,0,0,0,.91-.13l.13-13.81Zm5-13a9.32,9.32,0,0,0-3.64,3.62,4.29,4.29,0,0,0-.62,2.15c0,.91.63,1.91,1.89,3a29.21,29.21,0,0,0,4.62,3.19l-.13-12.57A4.53,4.53,0,0,0,214.07,186.93Zm7.82,28.69a6.65,6.65,0,0,0,2-1.4,3.45,3.45,0,0,0,.88-1.66,10.41,10.41,0,0,0,.19-2.15,4,4,0,0,0-1.82-3.38,24.79,24.79,0,0,0-4.75-2.54l-.13,12.5A26.37,26.37,0,0,0,221.89,215.62Z"/><polygon class="w" points="205.66 344.83 206.6 344.97 207.94 299.75 206.6 323.96 205.66 344.83"/><rect class="ae" x="288.2" y="222.49" width="138.12" height="37.17"/><circle class="j" cx="306.09" cy="241.26" r="10.78"/><path class="t" d="M269.13,193.46c2.27-.85,4.58-1.59,6.89-2.32s4.63-1.39,7-2,4.67-1.27,7-1.83l3.54-.84c1.18-.24,2.36-.52,3.56-.74-1.14.44-2.29.81-3.43,1.21L290.21,188c-2.31.73-4.64,1.39-7,2.05s-4.67,1.27-7,1.83S271.51,193,269.13,193.46Z"/><path class="t" d="M269.09,213.59c3.85,1.57,7.56,3.4,11.23,5.3s7.29,3.92,10.78,6.18c-3.86-1.56-7.56-3.39-11.24-5.3S272.57,215.85,269.09,213.59Z"/><path class="f" d="M183.65,607.84a3,3,0,0,0-.13-.54,7.74,7.74,0,0,1-.16-1.27,3.15,3.15,0,0,1,.25-1.55c.34-.68,1.21-1,1.5-.1C185.55,605.73,184.57,607,183.65,607.84Z"/><path class="f" d="M183.71,608.11a2.64,2.64,0,0,0,.28-.36,6.37,6.37,0,0,1,.73-.74,2.63,2.63,0,0,1,1.12-.62c.59-.11,1.22.29.81.91C186,608.26,184.72,608.26,183.71,608.11Z"/><path class="f" d="M97.48,607.12s-.36-.36-.39-.4a8.45,8.45,0,0,1-.8-1,3.18,3.18,0,0,1-.6-1.46c-.06-.75.53-1.46,1.23-.87C98,604.32,97.81,605.9,97.48,607.12Z"/><path class="f" d="M97.68,607.31a2.94,2.94,0,0,0,0-.45,7,7,0,0,1,.23-1,2.61,2.61,0,0,1,.63-1.11c.45-.41,1.2-.39,1.17.35C99.72,606.24,98.62,606.91,97.68,607.31Z"/><path class="t" d="M150,171.49c4,1.19,7.87,2.67,11.72,4.22s7.65,3.23,11.35,5.16c-4-1.2-7.88-2.68-11.72-4.23S153.73,173.41,150,171.49Z"/><path class="t" d="M153.82,199.25a5.11,5.11,0,0,1,1.48-.64c.51-.16,1-.31,1.54-.43,1-.26,2.07-.45,3.12-.63a33.57,33.57,0,0,1,6.35-.45,37.14,37.14,0,0,1-6.2,1.44c-1,.16-2.09.3-3.14.41S154.85,199.07,153.82,199.25Z"/><path class="w" d="M125.85,242.43s-3.1-8.84-.47-13.59c.73-1.19,1.64-3.55,6.39-3.43,0,0-1.1-3.12,1.52-7.51,0,0,2.47-4,5.46-4.3.37,0,2.6.32,2.28,4.27a17.41,17.41,0,0,1,10.23-7.69c1-.06,9.08-1.65,9.74,7.22-.77-1.21-3.72-7.66-11-4.6-1,.49-5.41,1.86-9.63,9.47-.35-2.36-.36-6-2.06-6.51a1.23,1.23,0,0,0-.88.09c-1.36.62-5,3.08-4,10.63,0,0-7.84-1.82-8.1,8.33,0,2,.65,7.72.65,7.72"/><path class="w" d="M130.22,254.49v.2l.59,10.19s.81,7.24,7.76,9.16a7.93,7.93,0,0,0,6.17-.83h-.13A12.44,12.44,0,0,1,132.06,265a8.75,8.75,0,0,1-.46-2.14"/><path class="f" d="M130.57,264.25s-.63,9.47,6.12,13.27c2.87,1.73,16.85,3.26,14.82-12.67,0,2.13-.92,4.94-7,8.45A8.4,8.4,0,0,1,136,273,11.08,11.08,0,0,1,130.57,264.25Z"/><path class="w" d="M102.09,321.08s2.3,37.87,6.09,37.87a20.92,20.92,0,0,1-4,2.55Z"/><path class="w" d="M185.9,362.94s-.82-3.24-10.61-5.91c-2.64-.7-9-2.26-20.71-2.76,0,0-23.71-1-39.05,2.62C114,357.3,166.49,351.31,185.9,362.94Z"/><path class="w" d="M145.94,411.64l0,37.49a103.08,103.08,0,0,0,.65,11.38L161.05,588l-4,1.22-1-9.24-7.84-73.57-6-58.79Z"/><line class="ai" x1="145.77" y1="411.78" x2="142.42" y2="447.61"/><path class="f" d="M157.1,589.23s24.66-8.35,40.63-2.84"/><polygon class="w" points="121.04 585.34 142.12 445.56 125.41 581.57 124.78 586.01 124.73 586.61 121.04 585.34"/><line class="f" x1="207.98" y1="299.84" x2="206.51" y2="344.81"/><path class="w" d="M218.27,264.59l-.12-3-.07,3Z"/><path class="w" d="M218,268.77l-.45,19.67,1.7.24-.8-19.91A1.69,1.69,0,0,1,218,268.77Z"/><path class="aj" d="M218.08,264.36s6.39.75,6.45,3.44c-.06.18.78,1.23-6.54,1.05"/><path class="w" d="M223.62,257.17s-3.71,6.7.28,7.12a3,3,0,0,0,1.59-.46s-1.08,3.61,1.46,4.31c1.08.32,2.43-.84,2.43-.84s.07,3.49,2.71,2.58a3.78,3.78,0,0,0,2.08-1.77,12.87,12.87,0,0,0,1.08-2.6l-2.46,2.92s-1.3,1.32-2.21.63c-.68-.51-.63-2-.12-3.13s1-2.48,1-2.48-2.89,4.36-4.57,3.9a3.69,3.69,0,0,1-1-2.67,21,21,0,0,1,1.45-4c-1.13,1-2.66,3.37-3.91,2.86C223.43,263.51,221.79,263.9,223.62,257.17Z"/><path class="w" d="M157.42,592.54s.58,13.48,8.33,13.93c4.51.33,12.52.52,14.8-1.22-.06.9-.07,1-.07,1a41,41,0,0,1-14.69,1.08c-1.73-.17-6.06-.5-6.87-.9C158.64,603.88,157.42,592.54,157.42,592.54Z"/><path class="w" d="M124.7,586.42s-1,11-1.67,18.61c-.16.05-1.77.27-1.77.27l.78-19.72Z"/><path class="f" d="M87.45,585a62.6,62.6,0,0,1,37.27,1.5"/><path class="w" d="M121.26,605.3l.13,9a1.93,1.93,0,0,1-1.76,2l-16.41,1.53,20,0L123,605Z"/><line class="ak" x1="87.7" y1="617.83" x2="123.19" y2="617.83"/><path class="w" d="M158.84,611.26s-.61,7.43,18.75,7.79c-9.45.2-18.76.47-18.76.47Z"/><line class="ak" x1="158.81" y1="619.22" x2="194.29" y2="619.22"/><path class="w" d="M223.63,251.35a72.82,72.82,0,0,0-1.2-7.39c0-.21-.1-.4-.14-.57-.27-1.2-.81-1.38-1.17-1.51h-.23a1.94,1.94,0,0,1-.24,0s1.08.93,1.76,4c.61,2.72.8,7.35,1.41,11.3.24-.65.4-1.15.4-1.15S223.89,253.58,223.63,251.35Z"/><path class="aj" d="M224.17,256.26s-1.93,4.5-1.13,6.7a1,1,0,0,0,1.58.48c.81-.56,2.12-2,4.5-5.4,0,0-5.16,7.19-2.38,9.19.42.17,1.34,1.73,6.17-6-1.51,3.25-3.94,6.38-2.12,7.82.63.36,1.29,1,4.42-3.85"/><path class="f" d="M88.22,574s24.48-4.7,37.49,3.5"/><path class="f" d="M156.12,578.94s23.88-9,41-2.18"/><path class="w" d="M106.34,391.92a5.32,5.32,0,0,0,1,1.88,6.92,6.92,0,0,1,.15-1.37Z"/><line class="ai" x1="110.08" y1="366.06" x2="107.39" y2="393.62"/><polygon class="w" points="506.16 438.65 497.61 422.45 497.23 565.67 499.55 563.79 500.6 562.86 501.27 562.23 501.57 561.94 506.16 438.65"/><path class="w" d="M514.34,350.63l41.78,89,60.27,75.61a24.61,24.61,0,0,1-1.4,8.13C602.32,508,567.54,465.11,554.44,449a50.42,50.42,0,0,1-7.94-13.79Z"/><polygon class="w" points="514.4 350.63 515.64 335.92 516.9 307.93 510.01 350.36 514.4 350.63"/><polygon class="w" points="467.95 278.68 476.21 299.91 486.7 273.58 488.83 273.43 476.34 302.81 467.37 278.69 467.95 278.68"/><path class="w" d="M454.66,254a17.84,17.84,0,0,0,9-1.23c1.4-.57,3.86-1.49,8-5.62,0,0-.25,1.1,1.34,4,.44,1.06,1.33,2.42.75,4.51a19.49,19.49,0,0,1,2.85-2.48c.47-.28,2.37-1.58,4.05,1.1a2.6,2.6,0,0,1-.7,3.16,1.7,1.7,0,0,1-1.1.15s1.36,2.64,6.33,6.58a35,35,0,0,1-7.56-7s3.2-1.16,1.71-3.26c-.61-.55-1.88-1.71-5.63,2.43-.5-1.49-.19-3.59-1.63-5.24-.38-.78-1-2.1-.75-2.82C470.46,249.64,462.43,256.67,454.66,254Z"/><path class="w" d="M453.63,253.86a24.27,24.27,0,0,1,1.65-7.78c1.89-4.79,5.85-10.09,13.27-10.49a14.74,14.74,0,0,1,9.45,3.2C474.12,237.56,462.66,229.57,453.63,253.86Z"/><path class="w" d="M499.14,241.58s-9-13.37-21.14-2.79c0,0,4.73-9.1,14.1-6.4,1.78.57,4.19,1.44,7.47,5.63.33.42.78.83,1.13,1.32,1.85,1.85,7.41,7.84,15.8.87,0,0,4.16-3.71,6.07-5.88,1.3-1.21,7.71-8.66,15.86-5.11,1.65.69,7.52,3.57,9.44,15,.36,1.9.79,9.53-3.55,15.6,2.17-8.93,1.91-21.93-5.28-26.79-2.34-1.21-10.4-4.24-18.38,6.94-5.6,5.95-10.09,11.81-21.41,1.71l-.17-.15"/><path class="w" d="M572,318.82l-38.94-34s-9.75-10.25-16.55-12.09c-2.3-.73-5.79-1.56-7.63-1,8.73,2.94,17.38,9.29,30.52,21.52l29.86,26.47Z"/><path class="w" d="M424.32,342.29s13.51,19,2.75,27.42c.61.18,1,.28,1,.28a10.24,10.24,0,0,0,4.9-8.83c.08-1.93,0-5.94-3.77-12.21C427.92,347.11,424.32,342.29,424.32,342.29Z"/><path class="w" d="M428.5,368.38l-53.4-14.07,52,15.4A15.62,15.62,0,0,0,428.5,368.38Z"/><path class="w" d="M428.08,370s.65-.26,1.74-.84a72.45,72.45,0,0,0,9.31-6.09,27.63,27.63,0,0,0,6.36-7.66,23.46,23.46,0,0,0,3.12-6.79c1.32-4.39,3.61-13.34,3.61-13.34s-6.42,16.59-9,20-7.39,8.08-10.9,9.31a10.53,10.53,0,0,1-1,2.17,10.11,10.11,0,0,1-1.12,1.51,10.74,10.74,0,0,1-1.08,1,6,6,0,0,1-.67.49A2,2,0,0,1,428.08,370Z"/><path class="ai" d="M617.42,559.68s-.4-3,2.13-2.89c1.88.29,3.4-1.53,3-2.69a2.1,2.1,0,0,1,2.17-2.75c2,.14,2.9-.8,2.54-2.32s-.22-3,1.52-2.68,3.18-.65,2.31-2.31"/><path class="ai" d="M468.1,601.4s1.62-2,3.6.35c1.1,1.1,2.08,1.16,3.36-.29.64-.93,2.38-1.86,3.19.34.69,1.4,2.2,1.45,3.24,0,.82-1.27,2-2,3.08,0,.92,1.45,2.14,1.86,3.3.18.87-1.33.7-1.28,1.1-1.22"/><line class="ai" x1="621.8" y1="568.82" x2="624.86" y2="568.52"/><path class="ai" d="M621.62,570.51c.28,0,3.48-.25,3.48-.25"/><path class="ai" d="M638.31,551.89s-6,6.25.64,11.53"/><line class="ai" x1="464.59" y1="611.78" x2="467.29" y2="613.99"/><line class="ai" x1="462.81" y1="612.99" x2="465.58" y2="615.48"/><path class="ai" d="M479.53,620.25s.42-8.68,8.67-7"/><polygon class="w" points="365.24 352.99 364.03 332.56 363.85 353.27 365.24 352.99"/><path class="w" d="M569.23,319.68l38.53,33.17-35.79-34S569.83,319,569.23,319.68Z"/><path class="w" d="M464.84,358.06s27.8-7.58,49.56-7.43c-5.16-.33-29.56-1.64-48.72,3.44A26.23,26.23,0,0,0,464.84,358.06Z"/><polygon class="w" points="617 529.23 629.8 543.07 616.06 531.13 616.59 530.18 617 529.23"/><path class="w" d="M636.2,549.73c-.07-.14,8,8.26,8,8.26l-8.36,9.49S641.79,559.85,636.2,549.73Z"/><path class="w" d="M489,599.79c0-.77,3.12-25.25,3.12-25.25a8.52,8.52,0,0,1-2.35,1.82C489.55,583.84,489,599.79,489,599.79Z"/><path class="al" d="M643.87,557.72l-17.32,20.07s-2.9,3.24-4.87,2.08"/><path class="w" d="M474.72,620.37a19,19,0,0,0,13.67-11.59c-.2,6.41-.35,11.28-.35,11.28Z"/><path class="al" d="M488,619.84l-27.22,1.46s-4-.26-4.05-2.55"/><line class="am" x1="290.46" y1="396.97" x2="435.71" y2="396.97"/><circle class="an" cx="145.91" cy="239.04" r="4.96"/><ellipse class="an" cx="156.8" cy="237.27" rx="4.46" ry="4.63"/><line class="an" x1="150.66" y1="237.29" x2="152.27" y2="236.9"/><line class="an" x1="158.67" y1="236.06" x2="161.04" y2="235.72"/><path class="ao" d="M137.68,239c.16.06,3.21-.06,3.21-.06"/></g></svg>